<svg xmlns="http://www.w3.org/2000/svg" viewBox="0 0 512 512">
  <rect width="512" height="512" rx="112" fill="#050907"/>
  <path d="M256 42c70 74 126 142 126 234 0 93-60 174-126 194-66-20-126-101-126-194 0-92 56-160 126-234Z" fill="#0f3d2e"/>
  <path d="M256 75c51 62 91 119 91 197 0 68-37 130-91 154-54-24-91-86-91-154 0-78 40-135 91-197Z" fill="#18a66a"/>
  <path d="M154 318c56-25 102-83 102-172 0 89 46 147 102 172-45 9-78 38-102 84-24-46-57-75-102-84Z" fill="#dfffe7"/>
  <circle cx="256" cy="284" r="40" fill="#101a23"/>
</svg>
